<svg version="1.1" xmlns="http://www.w3.org/2000/svg" viewBox="0 0 32 32">
<title>cloudflare</title>
<path fill="#f38020" d="M22.012 22.46c0.197-0.676 0.121-1.294-0.207-1.754-0.299-0.422-0.806-0.665-1.415-0.694l-11.546-0.15c-0.001 0-0.002 0-0.003 0-0.073 0-0.137-0.038-0.174-0.094l-0.001-0.001c-0.038-0.056-0.047-0.131-0.028-0.207 0.037-0.112 0.15-0.198 0.271-0.208l11.648-0.15c1.38-0.065 2.88-1.182 3.405-2.551l0.665-1.735c0.029-0.075 0.039-0.15 0.020-0.224-0.75-3.395-3.78-5.927-7.4-5.927-3.339 0-6.171 2.157-7.183 5.149-0.657-0.488-1.492-0.75-2.392-0.665-1.603 0.159-2.889 1.444-3.048 3.047-0.038 0.413-0.009 0.817 0.085 1.192-2.617 0.074-4.708 2.214-4.708 4.849 0 0.233 0.019 0.469 0.047 0.703 0.019 0.111 0.113 0.197 0.225 0.197h21.309c0.121 0 0.234-0.086 0.271-0.207zM25.687 15.042c-0.103 0-0.215 0-0.318 0.015-0.075 0-0.141 0.055-0.169 0.13l-0.45 1.566c-0.197 0.676-0.122 1.294 0.206 1.755 0.301 0.422 0.807 0.664 1.417 0.693l2.458 0.151c0.074 0 0.141 0.035 0.177 0.094 0.038 0.057 0.047 0.143 0.029 0.208-0.038 0.112-0.151 0.198-0.272 0.207l-2.561 0.15c-1.388 0.065-2.878 1.182-3.404 2.552l-0.187 0.478c-0.038 0.095 0.029 0.189 0.131 0.189h8.797c0.103 0 0.197-0.065 0.225-0.168 0.15-0.544 0.234-1.116 0.234-1.707 0-3.47-2.833-6.303-6.313-6.303z"></path>
</svg>
