<svg version="1.1" xmlns="http://www.w3.org/2000/svg" viewBox="0 0 32 32">
<title>eleventy</title>
<path d="M4.515 16.043v-16h22.939v32h-22.939zM22.075 24.136c0.184-0.018 0.353-0.069 0.505-0.146l-0.008 0.004c0.576-0.284 0.907-0.896 1.169-2.168 0.101-0.496 1.593-8.224 1.612-8.351 0.035-0.248-0.011-0.509-0.112-0.635-0.033-0.034-0.071-0.062-0.114-0.084l-0.002-0.001-0.080-0.041h-0.388c-0.337 0-0.397 0-0.464 0.027-0.151 0.052-0.276 0.208-0.34 0.421-0.015 0.051-0.224 1.175-0.464 2.497l-0.437 2.403-0.061-0.28c-0.747-3.396-1.019-4.603-1.059-4.709-0.029-0.084-0.076-0.156-0.137-0.213l-0-0c-0.14-0.143-0.156-0.147-0.756-0.147-0.548 0-0.563 0-0.667 0.099-0.115 0.105-0.163 0.288-0.148 0.56 0.008 0.153 0.060 0.36 0.917 3.712 0.884 3.449 1.001 3.924 1.049 4.236 0.061 0.4-0.067 0.951-0.277 1.191-0.043 0.049-0.049 0.052-0.112 0.043-0.037 0-0.16-0.036-0.272-0.068-0.357-0.104-0.483-0.096-0.616 0.037-0.128 0.128-0.183 0.331-0.184 0.68 0 0.341 0.037 0.453 0.212 0.631s0.432 0.277 0.793 0.307c0.219 0.016 0.293 0.016 0.44-0.003zM19.547 21.853c0.103-0.052 0.18-0.143 0.213-0.253l0.001-0.003c0.027-0.077 0.029-0.131 0.029-0.475 0-0.34-0.004-0.399-0.028-0.472-0.053-0.161-0.181-0.261-0.371-0.289-0.055-0.013-0.267-0.013-0.473-0.013-0.487-0.001-0.504-0.013-0.595-0.245-0.091-0.24-0.128-0.435-0.151-0.803-0.011-0.595-0.017-1.297-0.017-2.001 0-0.206 0.001-0.412 0.002-0.618l-0 0.032v-2.353h0.467c0.605 0 0.676-0.013 0.803-0.151 0.072-0.088 0.121-0.197 0.136-0.317l0-0.003c0.009-0.107 0.015-0.231 0.015-0.356s-0.005-0.249-0.016-0.372l0.001 0.016c-0.035-0.213-0.132-0.361-0.281-0.429-0.076-0.033-0.087-0.035-0.6-0.040h-0.523l-0.004-1.627c-0.004-1.453-0.007-1.636-0.028-1.704-0.038-0.146-0.136-0.264-0.265-0.328l-0.003-0.001c-0.069-0.032-0.096-0.033-0.427-0.039-0.36 0-0.475 0-0.572 0.051-0.116 0.056-0.197 0.177-0.247 0.371-0.019 0.072-0.043 0.461-0.101 1.683l-0.080 1.592c0 0-0.107 0-0.24 0.013-0.275 0.013-0.351 0.029-0.436 0.115-0.123 0.123-0.16 0.253-0.169 0.607-0.013 0.445 0.027 0.649 0.153 0.784 0.1 0.108 0.179 0.133 0.46 0.141l0.231 0.013v2.38c0 2.267 0.008 2.692 0.045 3.032 0.055 0.493 0.173 0.945 0.321 1.237 0.259 0.507 0.725 0.823 1.317 0.891h1.34zM9.617 21.853c0.131-0.071 0.213-0.205 0.267-0.443 0.021-0.103 0.024-0.535 0.024-6.024 0-5.579-0.001-5.92-0.027-6.013-0.067-0.259-0.253-0.387-0.504-0.347-0.047 0.013-0.459 0.112-0.915 0.233-0.457 0.12-0.912 0.24-1.011 0.264-0.227 0.057-0.285 0.083-0.375 0.168-0.14 0.131-0.163 0.247-0.163 0.808 0 0.555 0.021 0.667 0.16 0.805 0.125 0.127 0.252 0.133 0.608 0.040 0.137-0.035 0.257-0.064 0.267-0.064 0.013 0 0.019 1.045 0.023 5.017 0.004 4.581 0.007 5.027 0.028 5.12 0.064 0.269 0.151 0.395 0.315 0.453 0.045 0.017 0.177 0.021 0.649 0.019 0.58 0 0.593 0 0.653-0.037zM13.888 21.853c0.123-0.061 0.203-0.18 0.263-0.387l0.032-0.112 0.004-5.913c0.003-4.259 0-5.941-0.013-6.012-0.044-0.267-0.193-0.411-0.429-0.411-0.088 0-0.264 0.040-1.143 0.272-0.747 0.196-1.065 0.285-1.132 0.319-0.104 0.051-0.184 0.137-0.226 0.242l-0.001 0.003c-0.032 0.080-0.032 0.095-0.032 0.639 0 0.553 0 0.556 0.035 0.644 0.027 0.063 0.064 0.116 0.111 0.16l0 0c0.133 0.133 0.229 0.14 0.608 0.045 0.042-0.013 0.135-0.036 0.229-0.057l0.049-0.009c0.011 0 0.016 1.603 0.019 5.055l0.004 5.053 0.035 0.115c0.032 0.122 0.095 0.226 0.18 0.306l0 0c0.104 0.083 0.113 0.084 0.76 0.080 0.552 0 0.596 0 0.649-0.032z"></path>
</svg>
