<svg version="1.1" xmlns="http://www.w3.org/2000/svg" viewBox="0 0 32 32">
<title>firefox</title>
<path fill="#ff7139" d="M11.807 9.777c0.011 0 0.005 0 0 0zM8.109 7.929c0.009 0 0.005 0 0 0zM30.229 10.783c-0.667-1.604-2.019-3.337-3.080-3.885 0.864 1.693 1.364 3.392 1.555 4.66l0.003 0.027c-1.736-4.328-4.68-6.073-7.085-9.872-0.12-0.193-0.243-0.385-0.36-0.588-0.049-0.080-0.106-0.184-0.158-0.29l-0.012-0.027c-0.092-0.174-0.17-0.377-0.224-0.589l-0.004-0.019c0-0 0-0 0-0 0-0.021-0.016-0.038-0.036-0.040h-0c-0.004-0.001-0.009-0.002-0.014-0.002s-0.010 0.001-0.014 0.002l0-0-0.008 0.003c-0.005 0.002-0.009 0.004-0.012 0.007l0-0c0.002-0.004 0.004-0.007 0.007-0.009l-0 0c-3.413 2-4.829 5.501-5.192 7.729-1.117 0.065-2.154 0.344-3.092 0.797l0.049-0.021c-0.131 0.065-0.219 0.198-0.219 0.352 0 0.049 0.009 0.096 0.025 0.139l-0.001-0.003c0.054 0.152 0.197 0.259 0.365 0.259 0.057 0 0.111-0.012 0.16-0.035l-0.002 0.001c0.774-0.374 1.675-0.622 2.627-0.691l0.024-0.001 0.089-0.007c0.112-0.007 0.245-0.011 0.379-0.012h0.002c0.016-0 0.034-0 0.052-0 0.766 0 1.506 0.112 2.205 0.319l-0.055-0.014 0.125 0.040c0.173 0.052 0.29 0.092 0.407 0.134l-0.053-0.017c0.138 0.050 0.222 0.084 0.306 0.119l-0.051-0.019c0.069 0.027 0.137 0.055 0.205 0.084 0.152 0.067 0.255 0.116 0.356 0.168l-0.043-0.020 0.141 0.072c0.141 0.073 0.239 0.127 0.335 0.184l-0.036-0.020c0.094 0.054 0.155 0.092 0.216 0.131l-0.028-0.017c1.116 0.698 2.022 1.633 2.665 2.74l0.020 0.038c-0.82-0.576-2.288-1.145-3.701-0.899 5.523 2.76 4.040 12.268-3.613 11.909-0.725-0.031-1.407-0.17-2.045-0.402l0.047 0.015c-0.209-0.077-0.359-0.138-0.506-0.204l0.054 0.021c-0.122-0.054-0.207-0.096-0.291-0.139l0.032 0.015c-1.875-0.969-3.423-2.8-3.616-5.024 0 0 0.708-2.641 5.075-2.641 0.472 0 1.821-1.317 1.847-1.699-0.007-0.125-2.679-1.188-3.72-2.213-0.557-0.549-0.821-0.813-1.055-1.013-0.118-0.1-0.248-0.198-0.383-0.29l-0.016-0.010c-0.174-0.585-0.274-1.258-0.274-1.954 0-0.639 0.084-1.258 0.242-1.848l-0.011 0.050c-1.577 0.719-2.804 1.853-3.696 2.856h-0.008c-0.608-0.771-0.565-3.315-0.531-3.845-0.008-0.033-0.453 0.232-0.513 0.272-0.557 0.4-1.047 0.822-1.498 1.283l-0.002 0.002c-0.511 0.519-0.982 1.080-1.405 1.678l-0.028 0.042c-0.944 1.322-1.658 2.879-2.044 4.561l-0.017 0.087c-0.004 0.017-0.147 0.643-0.251 1.416-0.007 0.028-0.024 0.151-0.040 0.275l-0.009 0.085c-0.038 0.242-0.070 0.544-0.089 0.851l-0.001 0.029-0.003 0.045c-0.006 0.059-0.017 0.236-0.026 0.414l-0.004 0.097-0.001 0.080c0 8.477 6.875 15.351 15.355 15.351 7.593 0 13.899-5.513 15.133-12.755 0.027-0.196 0.047-0.393 0.069-0.592 0.307-2.632-0.033-5.4-0.995-7.713z"></path>
</svg>
