
<svg version="1.1" xmlns="http://www.w3.org/2000/svg" viewBox="0 0 32 32">
<title>go</title>
<path fill="#00add8" d="M2.415 14.287c-0.063 0-0.077-0.031-0.047-0.079l0.328-0.42c0.031-0.047 0.108-0.077 0.171-0.077h5.563c0.061 0 0.077 0.047 0.047 0.093l-0.265 0.404c-0.031 0.048-0.109 0.093-0.156 0.093zM0.063 15.72c-0.063 0-0.079-0.031-0.047-0.077l0.327-0.421c0.031-0.047 0.109-0.077 0.172-0.077h7.104c0.063 0 0.093 0.047 0.077 0.093l-0.124 0.373c-0.016 0.063-0.077 0.093-0.14 0.093zM3.833 17.153c-0.063 0-0.079-0.047-0.047-0.093l0.217-0.389c0.031-0.047 0.093-0.093 0.156-0.093h3.116c0.063 0 0.093 0.047 0.093 0.109l-0.031 0.373c0 0.063-0.063 0.109-0.109 0.109zM20.005 14.007c-0.981 0.249-1.652 0.436-2.617 0.685-0.235 0.061-0.249 0.077-0.453-0.156-0.232-0.265-0.404-0.436-0.731-0.592-0.983-0.483-1.933-0.343-2.82 0.233-1.060 0.685-1.605 1.699-1.589 2.96 0.015 1.247 0.872 2.275 2.103 2.447 1.060 0.14 1.947-0.233 2.649-1.028 0.14-0.172 0.264-0.359 0.42-0.577h-3.007c-0.327 0-0.405-0.203-0.296-0.467 0.203-0.483 0.576-1.293 0.795-1.699 0.067-0.148 0.214-0.249 0.384-0.249 0.002 0 0.004 0 0.006 0h5.67c-0.031 0.421-0.031 0.841-0.093 1.263-0.174 1.165-0.627 2.201-1.289 3.070l0.012-0.016c-1.121 1.48-2.587 2.4-4.44 2.648-1.527 0.203-2.945-0.093-4.191-1.027-1.153-0.873-1.808-2.027-1.979-3.46-0.203-1.699 0.296-3.225 1.324-4.565 1.107-1.448 2.571-2.368 4.363-2.695 1.464-0.265 2.867-0.093 4.128 0.763 0.827 0.547 1.417 1.293 1.808 2.197 0.093 0.14 0.031 0.219-0.156 0.265zM25.163 22.623c-1.419-0.032-2.712-0.437-3.803-1.372-0.883-0.748-1.495-1.793-1.679-2.979l-0.004-0.027c-0.28-1.76 0.203-3.319 1.263-4.705 1.137-1.496 2.508-2.275 4.363-2.601 1.589-0.28 3.085-0.125 4.44 0.795 1.231 0.84 1.995 1.979 2.197 3.473 0.264 2.104-0.343 3.817-1.792 5.283-1.028 1.044-2.291 1.697-3.74 1.993-0.42 0.079-0.84 0.093-1.245 0.141zM28.869 16.328c-0.015-0.203-0.015-0.359-0.045-0.515-0.28-1.543-1.699-2.415-3.179-2.072-1.449 0.327-2.384 1.247-2.727 2.711-0.28 1.216 0.312 2.447 1.433 2.945 0.857 0.373 1.713 0.327 2.54-0.093 1.231-0.64 1.9-1.636 1.977-2.976z"></path>
</svg>
