<svg version="1.1" xmlns="http://www.w3.org/2000/svg" viewBox="0 0 32 32">
<title>linode</title>
<path fill="#00a95c" d="M29.333 14.24c0.001-0.009 0.002-0.019 0.002-0.029 0-0.072-0.038-0.135-0.095-0.17l-0.001-0.001-4.347-2.427c-0.027-0.016-0.059-0.025-0.093-0.025s-0.067 0.009-0.094 0.025l0.001-0-3.693 2.253c-0.054 0.040-0.090 0.102-0.093 0.173l-0 0.001v1.933l-1.507-0.987c-0.028-0.018-0.063-0.029-0.1-0.029s-0.072 0.011-0.101 0.030l0.001-0-2.16 1.333-0.093-2.187c-0.010-0.065-0.044-0.121-0.093-0.16l-0.001-0-2.2-1.453 2.013-1.040c0.064-0.038 0.107-0.106 0.107-0.185 0-0.001 0-0.001 0-0.002v0l-0.36-8.36c-0.004-0.074-0.046-0.138-0.106-0.173l-0.001-0.001-5.653-2.76h-0.133l-7.76 2.413c-0.070 0.036-0.116 0.108-0.116 0.19 0 0.023 0.004 0.044 0.010 0.065l-0-0.002 1.693 8.307c-0.003 0.016-0.005 0.034-0.005 0.053s0.002 0.037 0.005 0.055l-0-0.002 2.44 1.84-1.68 0.8c-0.066 0.037-0.11 0.107-0.11 0.187 0 0.014 0.001 0.028 0.004 0.041l-0-0.001 1.333 6.267c-0.003 0.014-0.005 0.030-0.005 0.047s0.002 0.033 0.005 0.048l-0-0.002 1.653 1.52-1.067 0.653c-0.052 0.037-0.086 0.097-0.086 0.164 0 0.017 0.002 0.034 0.006 0.050l-0-0.001 1 4.853c-0.005 0.014-0.008 0.030-0.008 0.047s0.003 0.033 0.008 0.048l-0-0.001 4 4.293c0.034 0.035 0.081 0.056 0.133 0.056s0.099-0.021 0.133-0.056l0-0 5.227-4.16c0.047-0.038 0.078-0.095 0.080-0.16v-0l-0.093-2.827 1.76 1.467c0.032 0.027 0.074 0.044 0.12 0.044s0.088-0.017 0.12-0.044l-0 0 4.187-3.347c0.038-0.040 0.066-0.089 0.080-0.144l0-0.002 0.12-2.093 1.333 0.893c0.031 0.024 0.070 0.038 0.113 0.038s0.082-0.014 0.114-0.039l-0 0 3.427-2.667c0.039-0.032 0.064-0.080 0.067-0.133l0-0zM16.507 14.44l0.093 2.093 0.16 3.707-5.64 3.827-0.88-6.040zM16.040 3.213l0.333 7.88-6.667 3.453-1.2-8.427zM4.72 10.827l-1.613-7.813 4.987 3.093 1.24 8.267-2.107-1.6zM6.667 20.067l-1.173-5.68 4.373 3.653 0.8 5.84-2.24-2.16zM8.187 27.413l-0.867-4.187 3.853 3.8 0.627 4.213zM12.187 31.413l-0.653-4.44 5.333-3.827 0.187 4.373zM17.333 24.267v-1.44c-0.002-0.058-0.027-0.11-0.067-0.147l-0-0-1.507-1.227 1.333-0.933c0.049-0.034 0.080-0.090 0.080-0.153 0-0.002-0-0.005-0-0.007v0-0.347l1.853 1.413v4.28zM23.253 22.667l-3.813 3.040v-4.293l4.093-2.933zM24.973 21.053l-1.2-0.84 0.12-2.12c0.004-0.012 0.006-0.026 0.006-0.040s-0.002-0.028-0.006-0.041l0 0.001c0.003-0.010 0.004-0.021 0.004-0.033s-0.002-0.023-0.004-0.034l0 0.001-2.573-1.693v-1.853l4 2.52zM28.373 18.573l-3.040 2.413 0.347-4.080 3.24-2.24z"></path>
</svg>
