
<svg version="1.1" xmlns="http://www.w3.org/2000/svg" viewBox="0 0 32 32">
<title>vim</title>
<path fill="#019733" d="M32 15.981h-0.036l-5.757-5.757 5.737-5.885v-2.391l-0.865-0.864h-10.931l-0.88 0.807v1.393l-3.248-3.248v-0.036l-0.020 0.019-0.019-0.019v0.036l-1.72 1.721-0.717-0.719h-10.831l-0.851 0.923v2.513l0.821 0.821h0.96v7.080l-3.608 3.607h-0.036l0.019 0.017-0.019 0.019h0.036l3.608 3.608v8.623l1.209 0.697h3.096l2.476-2.539 5.555 5.555v0.037l0.020-0.019 0.019 0.019v-0.037l3.347-3.345h0.647c0.148 0 0.281-0.093 0.333-0.239l0.195-0.568c0.037-0.112 0.016-0.229-0.049-0.319l1.949-1.949-0.816 2.616c-0.057 0.188 0.048 0.385 0.236 0.443 0.033 0.011 0.069 0.016 0.104 0.016h2.432c0.141-0.001 0.268-0.085 0.324-0.217l0.22-0.525c0.033-0.087 0.032-0.184-0.005-0.271-0.036-0.087-0.107-0.155-0.195-0.189-0.039-0.016-0.083-0.025-0.129-0.027h-0.1l1.12-3.525h1.643l-1.355 4.295c-0.057 0.188 0.048 0.385 0.235 0.443 0.033 0.011 0.069 0.016 0.105 0.016h2.669c0.147 0 0.276-0.088 0.331-0.227l0.219-0.571c0.068-0.184-0.028-0.387-0.211-0.455-0.039-0.015-0.080-0.023-0.121-0.023h-0.193l1.508-4.897c0.036-0.109 0.016-0.231-0.052-0.32l-0.5-0.672-0.004-0.007c-0.068-0.085-0.169-0.136-0.279-0.136h-1.915c-0.095 0-0.188 0.040-0.253 0.108l-0.533 0.585h-0.832l-0.056-0.061 5.927-5.927h0.037l-0.019-0.015zM13.117 28.185l2.105-6.012h-0.668l0.396-0.405h2.212l-2.084 6.073h0.831l-0.105 0.344zM18.044 18.164l0.2 0.201-0.359 1.229-0.3 0.301h-1.292l-0.241-0.241 0.415-1.161 0.384-0.329zM7.453 27.772h-2.284l-0.349-0.2v-23.451h-1.648l-0.133-0.133v-1.568l0.191-0.205h9.828l0.284 0.285v1.477l-0.189 0.231h-1.439v11.584l11.743-11.584h-2.781l-0.233-0.251v-1.551l0.161-0.148h9.987l0.176 0.177v1.427l-13.46 13.804h-0.497c-0.020-0.001-0.037 0-0.056 0.001l-0.027 0.004c-0.060 0.013-0.115 0.040-0.159 0.080l-0.457 0.393-0.005 0.004c-0.044 0.041-0.079 0.092-0.097 0.148l-0.395 1.107zM27.144 22.503l0.632-0.692h1.779l0.412 0.553-1.687 5.476h0.657l-0.107 0.279h-2.377l1.499-4.752h-2.687l-1.436 4.521h0.565l-0.097 0.232h-2.14l1.476-4.731h-2.795l-1.416 4.452h0.581l-0.096 0.279h-2.215l2.019-5.947h-0.781l0.121-0.361h2.2l0.692 0.716h1.208l0.655-0.739h1.415l0.652 0.713z"></path>
</svg>
