<?xml version="1.0" standalone="no"?>
<!DOCTYPE svg PUBLIC "-//W3C//DTD SVG 20010904//EN"
 "http://www.w3.org/TR/2001/REC-SVG-20010904/DTD/svg10.dtd">
<svg version="1.0" xmlns="http://www.w3.org/2000/svg"
 width="560.000000pt" height="560.000000pt" viewBox="0 0 560.000000 560.000000"
 preserveAspectRatio="xMidYMid meet">
<metadata>
Created by potrace 1.14, written by Peter Selinger 2001-2017
</metadata>
<g transform="translate(0.000000,560.000000) scale(0.100000,-0.100000)"
fill="#000000" stroke="none">
<path d="M2608 5405 c-3 -3 -34 -7 -70 -10 -176 -11 -380 -104 -498 -227 -87
-91 -167 -233 -164 -292 1 -31 -22 -66 -43 -66 -26 0 -133 -123 -164 -189 -17
-36 -35 -74 -40 -83 -5 -10 -9 -24 -9 -33 0 -8 -29 -31 -65 -52 -36 -20 -65
-41 -65 -45 0 -4 -4 -8 -10 -8 -34 0 -252 -179 -392 -322 -105 -106 -290 -335
-306 -377 -3 -9 -8 -18 -12 -21 -8 -7 -80 -130 -80 -137 0 -3 -10 -22 -22 -42
-13 -20 -23 -38 -23 -41 -1 -3 -13 -32 -29 -65 -37 -80 -40 -88 -71 -175 -15
-41 -29 -82 -32 -90 -7 -16 -11 -31 -17 -57 -3 -10 -5 -18 -7 -18 -1 0 -3 -9
-5 -20 -1 -11 -12 -56 -22 -100 -20 -78 -23 -98 -41 -220 -11 -70 -19 -214
-22 -370 -1 -30 10 -187 16 -226 8 -62 34 -212 39 -234 2 -5 6 -23 10 -40 20
-82 77 -267 96 -310 5 -11 27 -63 50 -115 38 -84 56 -121 120 -235 14 -25 42
-69 125 -193 24 -36 155 -195 205 -247 140 -149 389 -345 533 -420 20 -11 37
-23 37 -27 0 -5 5 -8 11 -8 5 0 56 -22 112 -49 56 -27 131 -60 167 -74 36 -13
74 -28 85 -32 11 -5 22 -9 25 -10 10 -2 126 -37 150 -45 36 -12 121 -30 153
-32 15 -1 27 -5 27 -9 0 -4 8 -6 17 -5 10 2 33 -1 53 -5 77 -18 174 -24 370
-24 195 0 273 5 375 24 25 5 45 6 45 3 0 -2 6 1 13 7 8 6 16 8 19 5 3 -3 26 0
49 6 24 7 52 14 62 16 106 20 488 160 533 195 6 5 37 23 70 40 32 18 99 58
148 90 49 33 93 59 98 59 4 0 8 4 8 8 0 4 23 25 51 46 65 48 81 62 136 113 24
24 48 43 53 43 5 0 10 4 12 9 2 5 40 49 85 97 82 89 135 151 163 194 8 12 21
28 28 36 6 7 12 17 12 23 0 6 4 11 8 11 5 0 15 12 23 28 8 15 17 29 20 32 10
8 91 149 114 197 11 24 23 43 28 43 4 0 7 6 7 13 0 7 12 38 26 68 76 158 157
423 179 579 9 66 16 110 21 134 3 17 16 255 16 291 -2 76 -14 237 -23 296 -6
40 -12 83 -13 94 -1 11 -6 34 -9 50 -4 17 -9 39 -11 50 -3 11 -9 40 -15 65 -7
25 -14 54 -16 66 -18 79 -86 264 -142 381 -19 40 -34 76 -34 80 0 4 -6 15 -13
23 -6 8 -22 35 -36 60 -13 25 -28 48 -34 52 -6 4 -8 8 -4 8 10 0 -89 146 -167
245 -126 162 -332 361 -471 455 -27 19 -50 37 -52 42 -2 4 -7 8 -12 8 -5 0
-35 18 -68 40 -41 27 -62 48 -67 67 -18 76 -96 211 -163 285 -32 35 -33 40
-20 56 56 64 90 175 85 277 -6 112 -47 193 -124 246 -44 31 -53 33 -128 33
-70 0 -92 -5 -170 -38 -49 -21 -110 -44 -136 -50 -66 -18 -187 -17 -261 1 -35
8 -70 16 -78 18 -8 2 -49 12 -90 23 -41 12 -86 23 -100 26 -14 3 -36 7 -50 11
-14 3 -54 7 -88 10 -35 3 -67 7 -72 10 -4 2 -9 2 -12 0z"/>
</g>
</svg>
